<svg xmlns="http://www.w3.org/2000/svg" viewBox="0 0 176 176"><title>openconmdpi</title><g id="Layer_2" data-name="Layer 2"><g id="Layer_1-2" data-name="Layer 1"><rect width="176" height="176" style="fill:#00a5f3"/><path d="M32,69.15c0-7.6,5.09-14.69,15.15-14.69s15.07,7,15.07,14.43-4.8,14.86-14.9,14.86S32,76.66,32,69.15Zm21.69,0c0-4.41-1.57-8.23-6.37-8.23s-6.75,3.61-6.75,8,1.83,8.4,6.58,8.4S53.68,73.52,53.68,69.15Z" style="fill:#fff"/><path d="M66.54,57.18a2.2,2.2,0,0,1,2.2-2.2h9.81c6.49,0,11.5,3,11.5,9.51s-5,9.81-12.31,9.81h-3.1V81a2.2,2.2,0,0,1-2.2,2.2h-3.7a2.2,2.2,0,0,1-2.2-2.2ZM77.83,68.34c2.84,0,4.16-1.15,4.16-3.78S80.64,61,78,61H74.65v7.39Z" style="fill:#fff"/><path d="M96,55h14.69a2.2,2.2,0,0,1,2.2,2.2v2.17a2.2,2.2,0,0,1-2.2,2.2h-8.91V65.8h7.77a2.2,2.2,0,0,1,2.2,2.2v1.7a2.2,2.2,0,0,1-2.2,2.2h-7.77v4.75H111a2.2,2.2,0,0,1,2.2,2.2V81a2.2,2.2,0,0,1-2.2,2.2H96a2.2,2.2,0,0,1-2.2-2.2V57.18A2.2,2.2,0,0,1,96,55Z" style="fill:#fff"/><path d="M119.81,55h4.84a2.2,2.2,0,0,1,1.81.94l7.07,10.13a53.21,53.21,0,0,1,3.27,5.22h.08c0-.21-.17-2.67-.17-4.92V57.18a2.2,2.2,0,0,1,2.2-2.2h2.89a2.2,2.2,0,0,1,2.2,2.2V81a2.2,2.2,0,0,1-2.2,2.2h-4a2.2,2.2,0,0,1-1.8-.93l-8-11.25a50.06,50.06,0,0,1-3.1-4.71h-.09c0,.25.13,2.16.13,4.29V81a2.2,2.2,0,0,1-2.2,2.2h-2.89a2.2,2.2,0,0,1-2.2-2.2V57.18A2.2,2.2,0,0,1,119.81,55Z" style="fill:#fff"/><path d="M32,106.89c0-7.73,5-14.64,15.2-14.64a17.6,17.6,0,0,1,6.65,1.14,2.21,2.21,0,0,1,1.08,3.18l-1.26,2.12a2.2,2.2,0,0,1-2.71.92,10.08,10.08,0,0,0-3.9-.69c-4.16,0-6.49,3.18-6.49,7.73,0,4.75,2.21,8.19,6.58,8.19a9.19,9.19,0,0,0,4.22-.92,2.2,2.2,0,0,1,2.88.88l1.07,1.87a2.2,2.2,0,0,1-.87,3A16.4,16.4,0,0,1,47,121.54C36.75,121.54,32,114.62,32,106.89Z" style="fill:#fff"/><path d="M56.66,106.93c0-7.6,5.09-14.69,15.15-14.69s15.07,7,15.07,14.43-4.8,14.86-14.9,14.86S56.66,114.45,56.66,106.93Zm21.69,0c0-4.41-1.57-8.23-6.37-8.23s-6.75,3.61-6.75,8,1.83,8.4,6.58,8.4S78.35,111.31,78.35,106.93Z" style="fill:#fff"/><path d="M92.48,92.76h4.84a2.2,2.2,0,0,1,1.81.94l7.07,10.13a53.21,53.21,0,0,1,3.27,5.22h.08c0-.21-.17-2.67-.17-4.92V95a2.2,2.2,0,0,1,2.2-2.2h2.89a2.2,2.2,0,0,1,2.2,2.2v23.86a2.2,2.2,0,0,1-2.2,2.2h-4a2.2,2.2,0,0,1-1.8-.93l-8-11.25a50.06,50.06,0,0,1-3.1-4.71h-.09c0,.25.13,2.16.13,4.29v10.4a2.2,2.2,0,0,1-2.2,2.2H92.48a2.2,2.2,0,0,1-2.2-2.2V95A2.2,2.2,0,0,1,92.48,92.76Z" style="fill:#fff"/><rect x="133.2" y="110.22" width="3.65" height="17.96" rx="1.83" ry="1.83" transform="translate(15.83 254.23) rotate(-90)" style="fill:#fff"/></g></g></svg>