<svg xmlns="http://www.w3.org/2000/svg" viewBox="0 0 42 42"><defs><style>.cls-1{fill:#888;fill-rule:evenodd;}</style></defs><title>instagram</title><g id="Layer_2" data-name="Layer 2"><g id="Layer_1-2" data-name="Layer 1"><path class="cls-1" d="M21,0A21,21,0,1,1,0,21,21,21,0,0,1,21,0Zm6.81,12.6a1.58,1.58,0,1,1-1.58,1.58,1.58,1.58,0,0,1,1.58-1.58ZM21,14.45A6.55,6.55,0,1,1,14.46,21,6.54,6.54,0,0,1,21,14.45Zm0,2.32A4.23,4.23,0,1,1,16.77,21,4.23,4.23,0,0,1,21,16.77Zm-5.27-8.6H26.27a7.59,7.59,0,0,1,7.56,7.56V26.27a7.59,7.59,0,0,1-7.56,7.56H15.73a7.58,7.58,0,0,1-7.56-7.56V15.73a7.58,7.58,0,0,1,7.56-7.56Zm0,2.36H26.27a5.23,5.23,0,0,1,5.21,5.21V26.27a5.23,5.23,0,0,1-5.21,5.21H15.73a5.23,5.23,0,0,1-5.21-5.21V15.73a5.23,5.23,0,0,1,5.21-5.21Z"/></g></g></svg>