<svg xmlns="http://www.w3.org/2000/svg" viewBox="0 0 172.48 30"><defs><style>.cls-1,.cls-2{fill:#888;}.cls-1{fill-rule:evenodd;}</style></defs><title>logo</title><g id="Layer_2" data-name="Layer 2"><g id="Layer_1-2" data-name="Layer 1"><path class="cls-1" d="M2.66,0H17.91V6.67H6.67V23.33H23.33V0h4.05A2.64,2.64,0,0,1,30,2.66V27.38A2.61,2.61,0,0,1,27.38,30H2.66A2.64,2.64,0,0,1,0,27.38V2.66A2.66,2.66,0,0,1,2.66,0Z"/><rect class="cls-2" x="12.12" y="12.12" width="5.79" height="5.79"/><path class="cls-1" d="M170.06,4.32a2.42,2.42,0,1,1-2.42,2.42,2.42,2.42,0,0,1,2.42-2.42ZM169.85,6a.2.2,0,0,1,0,.11.22.22,0,0,1-.13.05h-.38V7.49a.16.16,0,0,1-.05.13.16.16,0,0,1-.11.05.22.22,0,0,1-.13-.05.16.16,0,0,1-.05-.13V6.17h-.38a.19.19,0,0,1-.11-.05.15.15,0,0,1-.05-.11.16.16,0,0,1,.05-.13.19.19,0,0,1,.11-.05h1.1a.22.22,0,0,1,.13.05.21.21,0,0,1,0,.13Zm1.84,1.5a.15.15,0,0,1,0,.11.23.23,0,0,1-.11.05.16.16,0,0,1-.11-.05.23.23,0,0,1-.05-.11V6.56l-.33.7s0,.06-.08.08a.18.18,0,0,1-.09,0l-.09,0a.13.13,0,0,1-.06-.08l-.34-.7V7.5a.15.15,0,0,1,0,.11.15.15,0,0,1-.23,0,.15.15,0,0,1,0-.11V6a.13.13,0,0,1,.15-.15c.05,0,.09,0,.11,0l.06.08.48,1,.48-1a.13.13,0,0,1,.06-.08h.1a.13.13,0,0,1,.15.15Z"/><path class="cls-1" d="M90.81,21.75H82.65V16.88h7.16a.65.65,0,0,0,.65-.65V13.61a.66.66,0,0,0-.65-.65H82.65V8.21h7.68A.66.66,0,0,0,91,7.54V5a.65.65,0,0,0-.65-.65H78.49a.67.67,0,0,0-.67.67V25a.66.66,0,0,0,.67.65H90.81a.66.66,0,0,0,.65-.65V22.41A.66.66,0,0,0,90.81,21.75ZM67.28,4.32H60.42a.67.67,0,0,0-.67.67V25a.63.63,0,0,0,.64.63h3.55a.64.64,0,0,0,.64-.64V18.3h2.3a9.27,9.27,0,0,0,6.18-2,6.54,6.54,0,0,0,2.29-5.24Q75.37,4.31,67.28,4.32Zm-.83,10.35H64.59V8h1.86c2.58,0,3.85,1.11,3.85,3.29S69,14.67,66.45,14.67Zm98-10.35-6.57,18.32L151.51,4.32h-2.77l7.73,21.31h2.77l7.88-21.31ZM138.19,15.93h7.69V13.67h-7.69V6.57h8.32V4.32H135.7V25.63H147V23.38h-8.8ZM111.43,4.32h-3.2a.65.65,0,0,0-.65.65V19.06c-.29-.54-7-12.3-8.17-14.41a.65.65,0,0,0-.57-.33H94.73a.65.65,0,0,0-.65.65V25a.65.65,0,0,0,.65.65h3.21a.65.65,0,0,0,.65-.65V10.46c.18.37,7.24,12.68,8.48,14.85a.63.63,0,0,0,.57.31h3.79a.66.66,0,0,0,.67-.65V5A.66.66,0,0,0,111.43,4.32Zm10.28,0h-5.9V25.63h5.68a11.63,11.63,0,0,0,8.36-3,10.49,10.49,0,0,0,3.12-8C133,7.77,129.21,4.32,121.72,4.32ZM128,21.16a9,9,0,0,1-6.53,2.22h-3.17V6.57h3.32c5.83,0,8.72,2.74,8.72,8.21A8.54,8.54,0,0,1,128,21.16ZM47,4a10.17,10.17,0,0,0-7.77,3.08,11.47,11.47,0,0,0-2.93,8.21A10.75,10.75,0,0,0,39.2,23a9.92,9.92,0,0,0,7.49,3,10.1,10.1,0,0,0,7.64-3.1,11.31,11.31,0,0,0,2.9-8.12,10.87,10.87,0,0,0-2.82-7.88A9.59,9.59,0,0,0,47,4Zm3.69,16.13a4.9,4.9,0,0,1-4,1.77A4.75,4.75,0,0,1,42.89,20a7.67,7.67,0,0,1-1.51-5,7.92,7.92,0,0,1,1.51-5,4.79,4.79,0,0,1,4-1.9,4.62,4.62,0,0,1,3.89,1.86,8.26,8.26,0,0,1,1.42,5.15A7.87,7.87,0,0,1,50.73,20.09Z"/></g></g></svg>