<svg xmlns="http://www.w3.org/2000/svg" viewBox="0 0 42 42"><defs><style>.cls-1{fill:#888;fill-rule:evenodd;}</style></defs><title>twitter</title><g id="Layer_2" data-name="Layer 2"><g id="Layer_1-2" data-name="Layer 1"><path class="cls-1" d="M21,0A21,21,0,1,1,0,21,21,21,0,0,1,21,0Zm9.44,13.26a7.78,7.78,0,0,0,3.17-1.17,4.48,4.48,0,0,1-2.11,2.84,11.15,11.15,0,0,0,2.86-.8,9.41,9.41,0,0,1-2.51,2.65c0,5.8-2.31,10.63-7.63,13.48a14.75,14.75,0,0,1-14.54-.58,11.27,11.27,0,0,0,7.36-2A5.51,5.51,0,0,1,12.24,24a11.47,11.47,0,0,0,2.16-.07,5.24,5.24,0,0,1-3.93-5.09,5.09,5.09,0,0,0,2.08.56c-1.89-1.8-2.76-3.9-1.36-6.75,2.92,3.15,6.31,5.13,10.45,5.27-.69-5.4,5-8.16,8.8-4.68Z"/></g></g></svg>