<svg xmlns="http://www.w3.org/2000/svg" viewBox="0 0 42 42"><defs><style>.cls-1{fill:#888;fill-rule:evenodd;}</style></defs><title>vk</title><g id="Layer_2" data-name="Layer 2"><g id="Layer_1-2" data-name="Layer 1"><path class="cls-1" d="M21,0A21,21,0,1,1,0,21,21,21,0,0,1,21,0ZM7.65,16.56c-.06-.52.27-.75.75-.75h3.66a1.31,1.31,0,0,1,1.21.81,19.15,19.15,0,0,0,3.52,5.84.67.67,0,0,0,1-.34,13.85,13.85,0,0,0,.05-4.86,1.61,1.61,0,0,0-1.28-1c-.09,0-.12-.06-.09-.16a1.4,1.4,0,0,1,1.24-.85,20.33,20.33,0,0,1,4.16,0c.85.15,1.22.51,1.22,1.39l0,4.41c0,1,.49,2,1.41,1a17.2,17.2,0,0,0,3.15-5.38c.18-.51.39-.88,1-.88H33c.86,0,1.3.46,1,1.28a30.56,30.56,0,0,1-3.79,5.69A1.26,1.26,0,0,0,30,24.44a10.56,10.56,0,0,0,.93.9,22.77,22.77,0,0,1,2.9,3.33c.58.82-.13,1.54-.94,1.54H29A2.33,2.33,0,0,1,28,30,3.5,3.5,0,0,1,27,29.24a19,19,0,0,0-1.37-1.49c-.18-.18-.56-.58-.84-.81a.82.82,0,0,0-.63-.22.66.66,0,0,0-.37.19,2.23,2.23,0,0,0-.55,1,5.5,5.5,0,0,0-.14,1.38.77.77,0,0,1-.31.68.87.87,0,0,1-.54.19,13.09,13.09,0,0,1-4.35-.5,8.48,8.48,0,0,1-1.49-.64,12.57,12.57,0,0,1-3-2.54,35.13,35.13,0,0,1-5.76-10Z"/></g></g></svg>